<?xml version="1.0" encoding="UTF-8" standalone="no"?>
<!DOCTYPE svg PUBLIC "-//W3C//DTD SVG 1.1//EN" "http://www.w3.org/Graphics/SVG/1.1/DTD/svg11.dtd">
<svg width="100%" height="100%" viewBox="0 0 800 600" version="1.1" xmlns="http://www.w3.org/2000/svg" xmlns:xlink="http://www.w3.org/1999/xlink" xml:space="preserve" xmlns:serif="http://www.serif.com/" style="fill-rule:evenodd;clip-rule:evenodd;stroke-linejoin:round;stroke-miterlimit:2;">
    <g transform="matrix(0.978098,0,0,0.603996,-19.3486,-17.0989)">
        <path d="M670.173,148.929C670.173,123.002 657.459,101.953 641.799,101.953L215.678,101.953C200.019,101.953 187.305,123.002 187.305,148.929L187.305,524.738C187.305,524.822 187.307,524.91 187.311,525.002C190.896,607.484 377.678,948.051 428.739,948.051C479.965,948.051 670.173,607.693 670.173,524.738L670.173,148.929Z" style="fill:url(#_Linear1);"/>
        <clipPath id="_clip2">
            <path d="M670.173,148.929C670.173,123.002 657.459,101.953 641.799,101.953L215.678,101.953C200.019,101.953 187.305,123.002 187.305,148.929L187.305,524.738C187.305,524.822 187.307,524.91 187.311,525.002C190.896,607.484 377.678,948.051 428.739,948.051C479.965,948.051 670.173,607.693 670.173,524.738L670.173,148.929Z"/>
        </clipPath>
        <g clip-path="url(#_clip2)">
            <g transform="matrix(1.02239,0,0,1.65564,19.7819,28.3097)">
                <path d="M400.912,213.864L401.364,22.842L753.449,23.676L752.085,600L400,599.167L400.671,315.588C401.119,315.604 401.571,315.613 402.025,315.613C425.529,315.613 444.611,292.813 444.611,264.73C444.611,236.647 425.529,213.847 402.025,213.847C401.654,213.847 401.283,213.853 400.912,213.864Z" style="fill:white;fill-opacity:0.08;"/>
            </g>
        </g>
    </g>
    <g transform="matrix(1.95763,0,0,1.95763,366.018,-69.3276)">
        <path d="M97.045,80.747L80.385,80.747C80.385,80.747 78.719,72.068 82.349,68.547C86.769,64.259 102.261,64.434 108.246,66.934C113.256,69.026 115.952,70.766 114.159,90.968C114.159,90.968 113.524,100.438 100,98.81C100,98.81 82.792,97.315 80.045,102.346C80.045,102.346 77.13,104.756 78.044,116.97C78.044,116.97 67.165,119.712 63.807,110.811C63.807,110.811 56.418,83.559 73.539,83.214L97.045,83.196L97.045,80.747ZM87.583,70.19C89.368,70.19 90.817,71.64 90.817,73.425C90.817,75.21 89.368,76.659 87.583,76.659C85.798,76.659 84.348,75.21 84.348,73.425C84.348,71.64 85.798,70.19 87.583,70.19Z" style="fill:rgb(55,117,168);"/>
        <g transform="matrix(-1,0,0,-1,195.153,200.053)">
            <path d="M97.045,80.747L80.385,80.747C80.385,80.747 78.719,72.068 82.349,68.547C86.769,64.259 102.261,64.434 108.246,66.934C113.256,69.026 115.952,70.766 114.159,90.968C114.159,90.968 113.524,100.438 100,98.81C100,98.81 82.792,97.315 80.045,102.346C80.045,102.346 77.13,104.756 78.044,116.97C78.044,116.97 67.165,119.712 63.807,110.811C63.807,110.811 56.418,83.559 73.539,83.214L97.045,83.196L97.045,80.747ZM87.583,70.19C89.368,70.19 90.817,71.64 90.817,73.425C90.817,75.21 89.368,76.659 87.583,76.659C85.798,76.659 84.348,75.21 84.348,73.425C84.348,71.64 85.798,70.19 87.583,70.19Z" style="fill:rgb(255,207,63);"/>
        </g>
    </g>
    <g transform="matrix(0.453735,0,0,0.453735,218.506,98.1039)">
        <path d="M487.032,191.815C487.032,147.438 451.003,111.409 406.626,111.409C374.528,111.409 346.798,130.258 333.909,157.483L281.983,157.483C297.037,102.783 347.171,62.555 406.626,62.555C477.967,62.555 535.887,120.474 535.887,191.815L541.713,191.815C570.327,191.815 593.558,215.046 593.558,243.659L593.558,485.601C593.558,514.215 570.327,537.445 541.713,537.445L258.287,537.445C229.673,537.445 206.442,514.215 206.442,485.601L206.442,243.659C206.442,215.046 229.673,191.815 258.287,191.815L487.032,191.815ZM364.472,359.431C356.399,350.761 351.458,339.137 351.458,326.369C351.458,299.578 373.209,277.827 400,277.827C426.791,277.827 448.542,299.578 448.542,326.369C448.542,339.137 443.601,350.761 435.528,359.431C461.72,367.389 479.729,383.87 479.729,402.892C479.729,429.683 444.004,451.433 400,451.433C355.996,451.433 320.271,429.683 320.271,402.892C320.271,383.87 338.28,367.389 364.472,359.431Z" style="fill:white;"/>
    </g>
    <g transform="matrix(1,0,0,1,-76.6217,-38.6254)">
        <g transform="matrix(72,0,0,72,368.622,453.229)">
            <path d="M0.253,-0.322L0.264,-0.491L0.125,-0.398L0.08,-0.478L0.23,-0.551L0.08,-0.625L0.125,-0.703L0.264,-0.61L0.253,-0.78L0.345,-0.78L0.333,-0.61L0.474,-0.703L0.52,-0.625L0.369,-0.551L0.52,-0.478L0.474,-0.398L0.333,-0.491L0.345,-0.322L0.253,-0.322Z" style="fill:white;fill-rule:nonzero;"/>
        </g>
        <g transform="matrix(72,0,0,72,411.829,453.229)">
            <path d="M0.253,-0.322L0.264,-0.491L0.125,-0.398L0.08,-0.478L0.23,-0.551L0.08,-0.625L0.125,-0.703L0.264,-0.61L0.253,-0.78L0.345,-0.78L0.333,-0.61L0.474,-0.703L0.52,-0.625L0.369,-0.551L0.52,-0.478L0.474,-0.398L0.333,-0.491L0.345,-0.322L0.253,-0.322Z" style="fill:white;fill-rule:nonzero;"/>
        </g>
        <g transform="matrix(72,0,0,72,455.036,453.229)">
            <path d="M0.253,-0.322L0.264,-0.491L0.125,-0.398L0.08,-0.478L0.23,-0.551L0.08,-0.625L0.125,-0.703L0.264,-0.61L0.253,-0.78L0.345,-0.78L0.333,-0.61L0.474,-0.703L0.52,-0.625L0.369,-0.551L0.52,-0.478L0.474,-0.398L0.333,-0.491L0.345,-0.322L0.253,-0.322Z" style="fill:white;fill-rule:nonzero;"/>
        </g>
        <g transform="matrix(72,0,0,72,498.243,453.229)">
            <path d="M0.253,-0.322L0.264,-0.491L0.125,-0.398L0.08,-0.478L0.23,-0.551L0.08,-0.625L0.125,-0.703L0.264,-0.61L0.253,-0.78L0.345,-0.78L0.333,-0.61L0.474,-0.703L0.52,-0.625L0.369,-0.551L0.52,-0.478L0.474,-0.398L0.333,-0.491L0.345,-0.322L0.253,-0.322Z" style="fill:white;fill-rule:nonzero;"/>
        </g>
        <g transform="matrix(72,0,0,72,541.45,453.229)">
            <path d="M0.253,-0.322L0.264,-0.491L0.125,-0.398L0.08,-0.478L0.23,-0.551L0.08,-0.625L0.125,-0.703L0.264,-0.61L0.253,-0.78L0.345,-0.78L0.333,-0.61L0.474,-0.703L0.52,-0.625L0.369,-0.551L0.52,-0.478L0.474,-0.398L0.333,-0.491L0.345,-0.322L0.253,-0.322Z" style="fill:white;fill-rule:nonzero;"/>
        </g>
    </g>
    <defs>
        <linearGradient id="_Linear1" x1="0" y1="0" x2="1" y2="0" gradientUnits="userSpaceOnUse" gradientTransform="matrix(482.868,0,0,846.098,187.305,525.002)"><stop offset="0" style="stop-color:rgb(56,56,56);stop-opacity:1"/><stop offset="1" style="stop-color:black;stop-opacity:1"/></linearGradient>
    </defs>
</svg>
