<?xml version="1.0" encoding="UTF-8" standalone="no"?><!DOCTYPE svg PUBLIC "-//W3C//DTD SVG 1.1//EN" "http://www.w3.org/Graphics/SVG/1.1/DTD/svg11.dtd"><svg width="100%" height="100%" viewBox="0 0 200 200" version="1.1" xmlns="http://www.w3.org/2000/svg" xmlns:xlink="http://www.w3.org/1999/xlink" xml:space="preserve" xmlns:serif="http://www.serif.com/" style="fill-rule:evenodd;clip-rule:evenodd;stroke-linecap:round;stroke-linejoin:round;stroke-miterlimit:1.5;"><path d="M190.98,44.944c0,-5.787 -4.699,-10.486 -10.486,-10.486l-160.988,0c-5.787,0 -10.486,4.699 -10.486,10.486l0,110.112c0,5.787 4.699,10.486 10.486,10.486l160.988,0c5.787,0 10.486,-4.699 10.486,-10.486l0,-110.112Z" style="fill:#101010;"/><g><circle cx="21.885" cy="45.88" r="4.112" style="fill:#e7623d;"/><circle cx="34.271" cy="45.88" r="4.112" style="fill:#e7b13d;"/><circle cx="46.657" cy="45.88" r="4.112" style="fill:#a9e73d;"/></g><g><path d="M171.501,138.818l-6.858,0c0,0 -0.685,-3.573 0.809,-5.022c1.819,-1.765 8.196,-1.693 10.66,-0.664c2.062,0.861 3.172,1.577 2.434,9.893c0,0 -0.262,3.898 -5.828,3.228c0,0 -7.084,-0.615 -8.215,1.455c0,0 -1.2,0.993 -0.823,6.02c0,0 -4.478,1.129 -5.86,-2.535c0,0 -3.042,-11.218 4.006,-11.36l9.675,-0.007l0,-1.008Zm-3.895,-4.346c0.735,0 1.332,0.597 1.332,1.332c0,0.734 -0.597,1.331 -1.332,1.331c-0.735,0 -1.331,-0.597 -1.331,-1.331c0,-0.735 0.596,-1.332 1.331,-1.332Z" style="fill:#3775a8;"/><path d="M171.939,154.69l6.858,0c0,0 0.685,3.572 -0.809,5.022c-1.819,1.765 -8.196,1.693 -10.66,0.664c-2.062,-0.862 -3.172,-1.578 -2.434,-9.893c0,0 0.262,-3.899 5.829,-3.228c0,0 7.083,0.615 8.214,-1.456c0,0 1.2,-0.992 0.823,-6.02c0,0 4.478,-1.128 5.861,2.536c0,0 3.041,11.217 -4.006,11.359l-9.676,0.008l0,1.008Zm3.895,4.345c-0.735,0 -1.331,-0.596 -1.331,-1.331c0,-0.735 0.596,-1.331 1.331,-1.331c0.735,0 1.331,0.596 1.331,1.331c0,0.735 -0.596,1.331 -1.331,1.331Z" style="fill:#ffcf3f;"/></g><g><rect x="73.243" y="102.224" width="11.148" height="12.126" style="fill:#fff;"/><rect x="56.42" y="108.334" width="11.148" height="12.031" style="fill:#fff;"/><circle cx="127.75" cy="115.83" r="15.83" style="fill:none;stroke:#fff;stroke-width:11px;"/><rect x="64.337" y="111.294" width="51.531" height="9.071" style="fill:#fff;"/></g><g><path d="M24.827,74.947l0,1.769c0.246,-0.035 0.438,-0.13 0.575,-0.284c0.136,-0.154 0.205,-0.35 0.205,-0.589c0,-0.242 -0.068,-0.44 -0.202,-0.594c-0.135,-0.155 -0.328,-0.255 -0.578,-0.302Zm-0.826,-1.694l0,-1.658c-0.242,0.031 -0.425,0.113 -0.548,0.243c-0.123,0.131 -0.184,0.31 -0.184,0.537c0,0.222 0.061,0.408 0.184,0.556c0.123,0.149 0.306,0.256 0.548,0.322Zm0.826,6.551l-0.826,0l-0.006,-1.763c-0.34,-0.012 -0.695,-0.063 -1.066,-0.153c-0.371,-0.09 -0.758,-0.219 -1.16,-0.387l0,-1.535c0.402,0.239 0.792,0.422 1.169,0.551c0.377,0.129 0.731,0.195 1.063,0.199l0,-1.927c-0.769,-0.153 -1.342,-0.415 -1.717,-0.788c-0.375,-0.374 -0.562,-0.867 -0.562,-1.48c0,-0.652 0.199,-1.172 0.598,-1.559c0.398,-0.386 0.959,-0.603 1.681,-0.65l0,-1.389l0.826,0l0.006,1.389c0.278,0.016 0.566,0.051 0.864,0.106c0.299,0.054 0.605,0.13 0.917,0.228l0,1.5c-0.242,-0.156 -0.511,-0.281 -0.808,-0.375c-0.297,-0.094 -0.623,-0.152 -0.979,-0.176l0,1.799c0.77,0.121 1.351,0.384 1.744,0.788c0.392,0.404 0.588,0.943 0.588,1.614c0,0.641 -0.212,1.166 -0.635,1.577c-0.424,0.41 -0.988,0.632 -1.691,0.668l-0.006,1.763Z" style="fill:#fff;fill-rule:nonzero;"/><path d="M37.8,77.115l0,3.422l-1.711,0l0,-9.059l1.711,0l0,0.984c0.18,-0.378 0.416,-0.664 0.709,-0.855c0.293,-0.191 0.637,-0.287 1.031,-0.287c0.75,0 1.332,0.301 1.746,0.902c0.414,0.602 0.621,1.449 0.621,2.543c0,1.11 -0.21,1.961 -0.629,2.555c-0.42,0.594 -1.019,0.89 -1.796,0.89c-0.352,0 -0.667,-0.09 -0.947,-0.272c-0.279,-0.182 -0.524,-0.456 -0.735,-0.823Zm2.391,-2.362c0,-0.632 -0.106,-1.128 -0.317,-1.488c-0.211,-0.359 -0.502,-0.539 -0.873,-0.539c-0.371,0 -0.664,0.18 -0.879,0.539c-0.215,0.36 -0.322,0.856 -0.322,1.488c0,0.633 0.107,1.129 0.322,1.489c0.215,0.359 0.508,0.539 0.879,0.539c0.371,0 0.662,-0.18 0.873,-0.539c0.211,-0.36 0.317,-0.856 0.317,-1.489Z" style="fill:#fff;fill-rule:nonzero;"/><path d="M46.601,78.75c-0.231,0.617 -0.507,1.067 -0.829,1.35c-0.323,0.283 -0.714,0.425 -1.175,0.425l-1.418,0l0,-1.307l0.697,0c0.352,0 0.61,-0.059 0.774,-0.178c0.164,-0.12 0.33,-0.396 0.498,-0.83l0.129,-0.351l-2.497,-6.381l1.805,0l1.5,4.26l1.436,-4.26l1.804,0l-2.724,7.272Z" style="fill:#fff;fill-rule:nonzero;"/><path d="M52.249,77.115l0,3.422l-1.711,0l0,-9.059l1.711,0l0,0.984c0.18,-0.378 0.416,-0.664 0.709,-0.855c0.293,-0.191 0.637,-0.287 1.031,-0.287c0.75,0 1.333,0.301 1.747,0.902c0.414,0.602 0.621,1.449 0.621,2.543c0,1.11 -0.21,1.961 -0.63,2.555c-0.42,0.594 -1.019,0.89 -1.796,0.89c-0.352,0 -0.667,-0.09 -0.946,-0.272c-0.28,-0.182 -0.525,-0.456 -0.736,-0.823Zm2.391,-2.362c0,-0.632 -0.106,-1.128 -0.317,-1.488c-0.21,-0.359 -0.501,-0.539 -0.873,-0.539c-0.371,0 -0.664,0.18 -0.878,0.539c-0.215,0.36 -0.323,0.856 -0.323,1.488c0,0.633 0.108,1.129 0.323,1.489c0.214,0.359 0.507,0.539 0.878,0.539c0.372,0 0.663,-0.18 0.873,-0.539c0.211,-0.36 0.317,-0.856 0.317,-1.489Z" style="fill:#fff;fill-rule:nonzero;"/><path d="M60.986,74.959c-0.641,0 -1.088,0.082 -1.342,0.246c-0.254,0.164 -0.381,0.445 -0.381,0.843c0,0.297 0.088,0.534 0.264,0.709c0.175,0.176 0.414,0.264 0.714,0.264c0.454,0 0.805,-0.171 1.055,-0.513c0.25,-0.341 0.375,-0.819 0.375,-1.432l0,-0.117l-0.685,0Zm2.39,-0.663l0,3.745l-1.705,0l0,-0.733c-0.207,0.289 -0.473,0.512 -0.797,0.668c-0.324,0.156 -0.681,0.234 -1.072,0.234c-0.746,0 -1.327,-0.197 -1.743,-0.591c-0.416,-0.395 -0.624,-0.946 -0.624,-1.653c0,-0.765 0.248,-1.331 0.744,-1.696c0.496,-0.365 1.264,-0.548 2.303,-0.548l1.189,0l0,-0.287c0,-0.277 -0.1,-0.487 -0.302,-0.63c-0.201,-0.142 -0.497,-0.214 -0.887,-0.214c-0.41,0 -0.808,0.052 -1.193,0.156c-0.384,0.103 -0.786,0.268 -1.204,0.495l0,-1.465c0.379,-0.156 0.764,-0.272 1.154,-0.346c0.391,-0.074 0.805,-0.111 1.243,-0.111c1.066,0 1.815,0.217 2.247,0.65c0.431,0.434 0.647,1.209 0.647,2.326Z" style="fill:#fff;fill-rule:nonzero;"/><path d="M69.915,71.683l0,1.5c-0.316,-0.203 -0.645,-0.356 -0.987,-0.46c-0.342,-0.103 -0.685,-0.155 -1.028,-0.155c-0.383,0 -0.672,0.056 -0.868,0.167c-0.195,0.111 -0.293,0.276 -0.293,0.495c0,0.313 0.418,0.566 1.254,0.762l0.065,0.017l0.492,0.117c0.625,0.149 1.083,0.388 1.374,0.718c0.291,0.33 0.437,0.777 0.437,1.339c0,0.676 -0.222,1.183 -0.665,1.521c-0.444,0.338 -1.111,0.506 -2.001,0.506c-0.395,0 -0.799,-0.034 -1.213,-0.102c-0.414,-0.068 -0.834,-0.171 -1.26,-0.308l0,-1.5c0.379,0.215 0.765,0.379 1.157,0.493c0.393,0.113 0.773,0.169 1.14,0.169c0.402,0 0.707,-0.058 0.914,-0.175c0.207,-0.118 0.31,-0.287 0.31,-0.51c0,-0.219 -0.073,-0.387 -0.219,-0.504c-0.147,-0.117 -0.495,-0.242 -1.046,-0.375l-0.475,-0.105c-0.656,-0.149 -1.135,-0.381 -1.435,-0.698c-0.301,-0.316 -0.452,-0.74 -0.452,-1.271c0,-0.633 0.229,-1.125 0.686,-1.477c0.457,-0.351 1.1,-0.527 1.928,-0.527c0.371,0 0.741,0.03 1.11,0.091c0.369,0.06 0.728,0.151 1.075,0.272Z" style="fill:#fff;fill-rule:nonzero;"/><path d="M77.14,71.683l0,1.5c-0.317,-0.203 -0.646,-0.356 -0.987,-0.46c-0.342,-0.103 -0.685,-0.155 -1.029,-0.155c-0.383,0 -0.672,0.056 -0.867,0.167c-0.195,0.111 -0.293,0.276 -0.293,0.495c0,0.313 0.418,0.566 1.254,0.762l0.064,0.017l0.493,0.117c0.625,0.149 1.083,0.388 1.374,0.718c0.291,0.33 0.436,0.777 0.436,1.339c0,0.676 -0.222,1.183 -0.665,1.521c-0.443,0.338 -1.11,0.506 -2.001,0.506c-0.394,0 -0.799,-0.034 -1.213,-0.102c-0.414,-0.068 -0.834,-0.171 -1.259,-0.308l0,-1.5c0.378,0.215 0.764,0.379 1.157,0.493c0.392,0.113 0.772,0.169 1.139,0.169c0.403,0 0.707,-0.058 0.914,-0.175c0.207,-0.118 0.311,-0.287 0.311,-0.51c0,-0.219 -0.073,-0.387 -0.22,-0.504c-0.146,-0.117 -0.495,-0.242 -1.046,-0.375l-0.474,-0.105c-0.656,-0.149 -1.135,-0.381 -1.436,-0.698c-0.301,-0.316 -0.451,-0.74 -0.451,-1.271c0,-0.633 0.229,-1.125 0.686,-1.477c0.457,-0.351 1.099,-0.527 1.927,-0.527c0.371,0 0.742,0.03 1.111,0.091c0.369,0.06 0.727,0.151 1.075,0.272Z" style="fill:#fff;fill-rule:nonzero;"/><path d="M83.263,74.654c0,-0.586 -0.111,-1.056 -0.334,-1.409c-0.223,-0.354 -0.516,-0.531 -0.879,-0.531c-0.359,0 -0.649,0.176 -0.87,0.528c-0.221,0.351 -0.331,0.822 -0.331,1.412c0,0.594 0.11,1.066 0.331,1.418c0.221,0.351 0.511,0.527 0.87,0.527c0.363,0 0.656,-0.177 0.879,-0.53c0.223,-0.354 0.334,-0.825 0.334,-1.415Zm1.717,2.894c0,1.051 -0.238,1.81 -0.712,2.277c-0.475,0.467 -1.245,0.7 -2.312,0.7c-0.359,0 -0.715,-0.026 -1.066,-0.079c-0.352,-0.053 -0.709,-0.134 -1.072,-0.243l0,-1.577c0.324,0.18 0.654,0.313 0.99,0.399c0.336,0.086 0.681,0.129 1.037,0.129c0.484,0 0.842,-0.114 1.072,-0.343c0.231,-0.228 0.346,-0.585 0.346,-1.069l0,-0.709c-0.168,0.312 -0.391,0.545 -0.668,0.697c-0.277,0.152 -0.615,0.229 -1.014,0.229c-0.75,0 -1.345,-0.293 -1.787,-0.879c-0.441,-0.586 -0.662,-1.381 -0.662,-2.385c0,-1.039 0.221,-1.863 0.662,-2.473c0.442,-0.609 1.033,-0.914 1.776,-0.914c0.375,0 0.709,0.088 1.002,0.264c0.292,0.176 0.523,0.424 0.691,0.744l0,-0.838l1.717,0l0,6.07Z" style="fill:#fff;fill-rule:nonzero;"/><path d="M92.239,77.718c-0.398,0.164 -0.804,0.287 -1.218,0.369c-0.414,0.082 -0.852,0.123 -1.313,0.123c-1.097,0 -1.936,-0.293 -2.516,-0.881c-0.58,-0.588 -0.87,-1.435 -0.87,-2.54c0,-1.071 0.279,-1.916 0.837,-2.538c0.559,-0.621 1.321,-0.931 2.286,-0.931c0.972,0 1.727,0.288 2.264,0.864c0.537,0.576 0.806,1.388 0.806,2.435l0,0.697l-4.447,0c0.004,0.516 0.156,0.9 0.457,1.154c0.3,0.254 0.75,0.381 1.347,0.381c0.395,0 0.783,-0.057 1.166,-0.17c0.383,-0.113 0.784,-0.293 1.201,-0.539l0,1.576Zm-1.453,-3.691c-0.007,-0.453 -0.124,-0.796 -0.348,-1.028c-0.225,-0.233 -0.556,-0.349 -0.993,-0.349c-0.395,0 -0.709,0.12 -0.944,0.36c-0.234,0.241 -0.373,0.581 -0.416,1.023l2.701,-0.006Z" style="fill:#fff;fill-rule:nonzero;"/><path d="M99.282,73.781l0,4.26l-1.705,0l0,-3.997c0,-0.476 -0.067,-0.817 -0.202,-1.022c-0.135,-0.205 -0.354,-0.308 -0.659,-0.308c-0.309,0 -0.552,0.139 -0.729,0.416c-0.178,0.278 -0.267,0.663 -0.267,1.155l0,3.756l-1.705,0l0,-6.563l1.705,0l0,0.984c0.121,-0.363 0.328,-0.644 0.621,-0.843c0.293,-0.2 0.647,-0.299 1.061,-0.299c0.621,0 1.089,0.206 1.406,0.618c0.316,0.412 0.474,1.026 0.474,1.843Z" style="fill:#fff;fill-rule:nonzero;"/><rect x="102.863" y="75.89" width="1.951" height="2.15" style="fill:#fff;fill-rule:nonzero;"/><path d="M110.046,77.115l0,3.422l-1.711,0l0,-9.059l1.711,0l0,0.984c0.18,-0.378 0.416,-0.664 0.709,-0.855c0.293,-0.191 0.637,-0.287 1.031,-0.287c0.75,0 1.332,0.301 1.746,0.902c0.415,0.602 0.622,1.449 0.622,2.543c0,1.11 -0.21,1.961 -0.63,2.555c-0.42,0.594 -1.019,0.89 -1.796,0.89c-0.352,0 -0.667,-0.09 -0.947,-0.272c-0.279,-0.182 -0.524,-0.456 -0.735,-0.823Zm2.391,-2.362c0,-0.632 -0.106,-1.128 -0.317,-1.488c-0.211,-0.359 -0.502,-0.539 -0.873,-0.539c-0.371,0 -0.664,0.18 -0.879,0.539c-0.214,0.36 -0.322,0.856 -0.322,1.488c0,0.633 0.108,1.129 0.322,1.489c0.215,0.359 0.508,0.539 0.879,0.539c0.371,0 0.662,-0.18 0.873,-0.539c0.211,-0.36 0.317,-0.856 0.317,-1.489Z" style="fill:#fff;fill-rule:nonzero;"/><path d="M118.847,78.75c-0.231,0.617 -0.507,1.067 -0.829,1.35c-0.322,0.283 -0.714,0.425 -1.175,0.425l-1.418,0l0,-1.307l0.697,0c0.352,0 0.61,-0.059 0.774,-0.178c0.164,-0.12 0.33,-0.396 0.498,-0.83l0.129,-0.351l-2.496,-6.381l1.804,0l1.5,4.26l1.436,-4.26l1.805,0l-2.725,7.272Z" style="fill:#fff;fill-rule:nonzero;"/></g></svg>